<svg xmlns="http://www.w3.org/2000/svg" width="15.579" height="15.579" viewBox="0 0 15.579 15.579"><defs><style>.a{fill:#03a87c;}</style></defs><path class="a" d="M10.711,0H4.868A4.869,4.869,0,0,0,0,4.868v5.842a4.869,4.869,0,0,0,4.868,4.868h5.842a4.869,4.869,0,0,0,4.868-4.868V4.868A4.869,4.869,0,0,0,10.711,0Zm3.408,10.711a3.412,3.412,0,0,1-3.408,3.408H4.868a3.412,3.412,0,0,1-3.408-3.408V4.868A3.412,3.412,0,0,1,4.868,1.461h5.842a3.412,3.412,0,0,1,3.408,3.408Z"/><g transform="translate(3.895 3.895)"><path class="a" d="M131.895,128a3.895,3.895,0,1,0,3.895,3.895A3.895,3.895,0,0,0,131.895,128Zm0,6.329a2.434,2.434,0,1,1,2.434-2.434A2.438,2.438,0,0,1,131.895,134.329Z" transform="translate(-128 -128)"/></g><g transform="translate(11.457 3.084)"><circle class="a" cx="0.519" cy="0.519" r="0.519"/></g></svg>