<svg xmlns="http://www.w3.org/2000/svg" width="20" height="16" viewBox="0 0 20 16">
  <path id="Path_89" data-name="Path 89" d="M20,1.894a8.3,8.3,0,0,1-2.356.636A4.073,4.073,0,0,0,19.449.3a8.327,8.327,0,0,1-2.606.98,4.128,4.128,0,0,0-3-1.275,4.071,4.071,0,0,0-4.1,4.039,3.976,3.976,0,0,0,.106.921A11.711,11.711,0,0,1,1.393.738,3.967,3.967,0,0,0,.837,2.769,4.023,4.023,0,0,0,2.661,6.132,4.131,4.131,0,0,1,.8,5.626v.052a4.058,4.058,0,0,0,3.292,3.96,4.162,4.162,0,0,1-1.853.07,4.1,4.1,0,0,0,3.834,2.8,8.313,8.313,0,0,1-5.1,1.728A8.294,8.294,0,0,1,0,14.185,11.746,11.746,0,0,0,6.289,16a11.693,11.693,0,0,0,7.369-2.507,11.639,11.639,0,0,0,4.307-8.986c0-.175,0-.349-.012-.522A8.258,8.258,0,0,0,20,1.894Zm0,0" fill="#03a87c"/>
</svg>
